<?xml version="1.0" standalone="no"?>
<!DOCTYPE svg PUBLIC "-//W3C//DTD SVG 20010904//EN"
 "http://www.w3.org/TR/2001/REC-SVG-20010904/DTD/svg10.dtd">
<svg version="1.0" xmlns="http://www.w3.org/2000/svg"
 width="144px" height="144px" viewBox="0 0 144.000000 144.000000"
 preserveAspectRatio="xMidYMid meet">

<g transform="translate(0.000000,144.000000) scale(0.100000,-0.100000)"
fill="#000000" stroke="none">
<path d="M630 1431 c-57 -9 -188 -45 -205 -58 -6 -5 -18 -20 -28 -36 -13 -20
-25 -27 -45 -25 -17 1 -45 -10 -72 -29 -64 -43 -85 -70 -85 -107 0 -26 -3 -31
-21 -28 -28 4 -55 -31 -104 -133 -51 -107 -63 -168 -64 -305 0 -106 3 -123 35
-215 38 -108 101 -211 162 -264 l37 -33 0 57 c0 58 14 100 30 90 5 -3 27 -43
48 -88 57 -121 62 -133 51 -144 -14 -14 99 -67 195 -92 337 -88 720 123 830
457 64 196 58 359 -21 534 -24 53 -27 57 -54 51 -34 -7 -82 4 -74 17 3 5 9 30
15 57 l9 48 -63 61 c-71 68 -210 144 -311 169 -75 19 -193 26 -265 16z m96
-386 c3 -8 10 -13 14 -10 4 3 28 2 53 -1 33 -5 44 -10 40 -20 -3 -8 -1 -14 5
-14 6 0 17 -3 25 -6 9 -3 18 2 21 13 5 15 15 19 44 17 21 -1 48 -7 60 -13 16
-9 27 -9 43 -1 16 9 24 8 38 -4 10 -9 24 -16 33 -16 33 0 68 -74 68 -143 l0
-28 -52 29 c-29 16 -70 33 -90 36 -26 5 -38 12 -38 24 0 12 -8 9 -32 -15 l-32
-32 18 -93 c18 -95 45 -166 46 -122 0 21 0 21 53 3 61 -21 84 -23 89 -8 6 18
37 -18 33 -38 -2 -10 -7 -35 -10 -56 -6 -37 -7 -38 -24 -23 -10 9 -22 16 -27
15 -38 -7 -61 4 -77 34 -17 32 -21 34 -68 31 -62 -3 -98 21 -80 54 15 29 14
52 -4 52 -9 0 -12 -6 -9 -15 4 -8 -1 -17 -10 -21 -11 -4 -14 -13 -10 -29 4
-17 0 -24 -14 -27 -26 -7 -46 6 -39 26 5 13 0 14 -26 9 -18 -3 -40 -10 -49
-15 -10 -5 -18 -6 -18 -4 0 3 -12 -6 -26 -20 -16 -17 -32 -24 -44 -21 -11 3
-31 -3 -44 -14 -24 -19 -24 -19 -30 6 -4 14 -13 25 -20 25 -9 0 -12 7 -9 19 3
13 -3 22 -25 32 -25 11 -28 17 -23 38 4 14 7 43 6 64 -3 60 7 59 150 -9 28
-13 61 -24 74 -24 32 0 104 22 112 33 4 6 16 7 28 4 22 -5 22 -5 26 56 1 15
10 33 19 40 16 12 16 14 -1 33 -10 12 -31 24 -48 27 -16 3 -61 13 -100 22 -82
19 -88 19 -137 10 -31 -6 -36 -5 -35 11 1 11 6 22 11 26 5 3 11 14 12 23 5 37
13 42 68 44 43 1 58 -2 62 -14z m-146 -15 c0 -5 -5 -10 -11 -10 -5 0 -7 5 -4
10 3 6 8 10 11 10 2 0 4 -4 4 -10z m-413 -92 c-3 -8 -6 -5 -6 6 -1 11 2 17 5
13 3 -3 4 -12 1 -19z m40 -85 c3 -7 -3 -9 -17 -6 -29 8 -37 25 -9 21 12 -1 24
-8 26 -15z m46 -53 c-3 -11 -7 -20 -8 -20 -1 0 -5 9 -8 20 -3 12 0 20 8 20 8
0 11 -8 8 -20z m-62 -59 c-35 -35 -23 -101 19 -101 18 0 70 -43 70 -58 0 -11
-31 -32 -48 -32 -4 0 -24 14 -43 31 -19 18 -26 29 -16 25 32 -11 39 5 12 26
-28 22 -33 69 -13 125 10 28 14 31 26 19 12 -12 11 -17 -7 -35z m101 -33 c11
-91 4 -113 -22 -70 -23 37 -25 53 -8 70 15 15 28 15 30 0z m-62 -38 c0 -5 -4
-10 -10 -10 -5 0 -10 5 -10 10 0 6 5 10 10 10 6 0 10 -4 10 -10z m522 -113 c8
-39 -30 -61 -58 -33 -12 13 -10 17 12 35 34 27 41 26 46 -2z m-186 -114 c-7
-7 -26 7 -26 19 0 6 6 6 15 -2 9 -7 13 -15 11 -17z m34 -8 c0 -9 7 -18 15 -21
17 -7 21 -54 5 -54 -5 0 -10 9 -10 20 0 12 -10 25 -25 32 -19 9 -22 14 -14 25
15 17 29 17 29 -2z m122 -79 c-3 -5 2 -7 11 -3 9 3 18 0 21 -8 3 -9 12 -12 22
-8 12 4 15 1 12 -13 -2 -12 4 -24 17 -31 11 -7 14 -12 7 -13 -7 0 -10 -5 -7
-11 4 -5 0 -18 -10 -29 -15 -17 -19 -17 -66 -2 -50 16 -59 28 -37 50 9 9 9 12
0 12 -9 0 -9 5 0 21 10 17 10 23 1 26 -22 8 -14 21 11 19 13 0 22 -5 18 -10z
m148 -107 c0 -5 5 -7 10 -4 12 7 12 3 4 -19 -3 -9 -13 -16 -22 -16 -8 0 -12 3
-9 6 3 4 2 15 -4 25 -7 15 -6 19 6 19 8 0 15 -5 15 -11z"/>
<path d="M975 950 c3 -5 8 -10 11 -10 2 0 4 5 4 10 0 6 -5 10 -11 10 -5 0 -7
-4 -4 -10z"/>
</g>
</svg>
